<?xml version="1.0" encoding="utf-8"?>
<!-- Generator: Adobe Illustrator 18.0.0, SVG Export Plug-In . SVG Version: 6.00 Build 0)  -->
<!DOCTYPE svg PUBLIC "-//W3C//DTD SVG 1.1//EN" "http://www.w3.org/Graphics/SVG/1.1/DTD/svg11.dtd">
<svg version="1.1" id="Layer_1" xmlns="http://www.w3.org/2000/svg" xmlns:xlink="http://www.w3.org/1999/xlink" x="0px" y="0px"
	 viewBox="173.9 188.9 571.5 75.3" enable-background="new 173.9 188.9 571.5 75.3" xml:space="preserve">
<path fill="#E7AF3F" d="M219,218c0,0-1.5,1.5-2.3,2.3c-1.7,1.7-3.4,3.5-4.5,5.3v-30.6h6.9V218z M209.3,229.5
	c-1.7-1.9-3.4-3.7-6.3-5.4v-20.4h6.3V229.5z M205.1,238.2c0,0.1-0.1,0.2-0.1,0.3c-5.1-5.7-11.5-10.1-18.7-12.7l2.5-6.7
	c7.4,2.7,14.1,7,19.6,12.6C207.1,233.8,206.1,236,205.1,238.2 M201.8,249c-3.5-5.2-8.4-9.4-14.4-12.1l2.6-5.7
	c5.4,2.5,10.1,5.9,13.9,10.2C203,243.9,202.3,246.4,201.8,249 M211.6,188.9c-20.8,0-37.7,16.9-37.7,37.7c0,17.9,12.5,32.9,29.3,36.7
	c-0.1-1.1-0.1-2.1-0.1-3.2c0-19.8,10.9-38,28.3-47.4l3.4,6.3c-15.2,8.1-24.6,23.9-24.6,41.1c0,1.4,0.1,2.7,0.2,4.1
	c0.4,0,0.7,0,1.1,0c0.5,0,1,0,1.5,0c-0.1-1.4-0.2-2.7-0.2-4.1c0-7.3,1.8-14.2,5.2-20.4c3.3-5.9,8.1-11,13.8-14.7l3.4,5.3
	c-4.9,3.2-9,7.5-11.8,12.5c-2.9,5.3-4.4,11.1-4.4,17.4c0,1.1,0.1,2.2,0.1,3.3c17.1-3.6,29.9-18.7,29.9-36.9
	C249.3,205.8,232.4,188.9,211.6,188.9"/>
<rect x="173.9" y="188.9" fill="none" width="75.3" height="75.3"/>
<g>
	<path fill="#878787" d="M298.5,221.6l0.7-7.1h-0.3l-2.3,6.6l-10.3,20.2h-1.8l-10.8-20.2l-2.3-6.6H271l1,7.1v30.6h-5.3v-46.6h4.6
		l12.4,22.9l1.8,5.5h0.1l1.8-5.5l11.7-22.8h4.8v46.6h-5.5L298.5,221.6L298.5,221.6z"/>
	<path fill="#878787" d="M309.7,208.8c0-1.1,0.3-1.9,1-2.6c0.7-0.7,1.5-1,2.6-1c1.1,0,2,0.3,2.7,1c0.7,0.6,1.1,1.5,1.1,2.6
		c0,1.1-0.4,1.9-1.1,2.5c-0.7,0.6-1.6,0.9-2.7,0.9c-1.1,0-1.9-0.3-2.6-0.9C310,210.6,309.7,209.8,309.7,208.8z M310.6,218.9h5.3
		v33.3h-5.3V218.9z"/>
	<path fill="#878787" d="M341.1,252.2v-20.3c0-3.3-0.4-5.7-1.3-7.2c-0.9-1.5-2.4-2.2-4.6-2.2c-2,0-3.6,0.5-4.8,1.6
		c-1.3,1.1-2.2,2.4-2.8,3.9v24.2h-5.3v-33.3h3.8l1,3.5h0.2c0.9-1.2,2.2-2.2,3.8-3.1c1.6-0.8,3.5-1.3,5.7-1.3c1.6,0,2.9,0.2,4.1,0.6
		c1.2,0.4,2.2,1.1,3,2c0.8,1,1.4,2.2,1.8,3.8c0.4,1.6,0.6,3.6,0.6,6.1v21.6L341.1,252.2L341.1,252.2z"/>
	<path fill="#878787" d="M351.2,208.8c0-1.1,0.3-1.9,1-2.6c0.7-0.7,1.5-1,2.6-1c1.1,0,2,0.3,2.7,1c0.7,0.6,1.1,1.5,1.1,2.6
		c0,1.1-0.4,1.9-1.1,2.5c-0.7,0.6-1.6,0.9-2.7,0.9c-1.1,0-1.9-0.3-2.6-0.9C351.6,210.6,351.2,209.8,351.2,208.8z M352.2,218.9h5.3
		v33.3h-5.3V218.9z"/>
	<path fill="#878787" d="M363.4,246.7c1,0.5,2.1,1,3.5,1.4c1.3,0.4,2.7,0.6,4.1,0.6c1.6,0,3-0.4,4.1-1.1c1.1-0.7,1.7-1.9,1.7-3.6
		c0-1.4-0.3-2.5-1-3.4c-0.7-0.9-1.5-1.7-2.6-2.4c-1-0.7-2.2-1.4-3.4-2c-1.2-0.6-2.4-1.3-3.4-2.2c-1-0.8-1.9-1.8-2.6-3
		c-0.7-1.1-1-2.6-1-4.4c0-2.8,0.8-5,2.5-6.4c1.7-1.4,4.1-2.2,7.1-2.2c2,0,3.7,0.2,5.2,0.5s2.7,0.8,3.8,1.4l-1.4,4
		c-0.9-0.4-2-0.8-3.2-1.1c-1.2-0.3-2.5-0.4-3.7-0.4c-1.8,0-3,0.3-3.8,1c-0.8,0.7-1.2,1.7-1.2,3.1c0,1.1,0.3,2.1,1,2.8
		c0.7,0.8,1.5,1.5,2.6,2.1c1,0.6,2.2,1.3,3.4,2c1.2,0.7,2.4,1.5,3.4,2.4c1,0.9,1.9,2,2.6,3.3c0.7,1.3,1,2.9,1,4.8
		c0,1.2-0.2,2.4-0.7,3.5c-0.4,1.1-1.1,2.1-2,2.9c-0.9,0.8-2,1.5-3.4,2s-2.9,0.7-4.7,0.7c-2.1,0-4-0.2-5.6-0.6
		c-1.6-0.4-2.9-0.9-4-1.5L363.4,246.7z"/>
	<path fill="#878787" d="M381.8,218.9h4.5v-6.6l5.3-1.5v8.1h7.9v4.3h-7.9v19.8c0,2,0.3,3.4,0.8,4.2s1.4,1.3,2.5,1.3
		c1,0,1.8-0.1,2.5-0.3c0.7-0.2,1.5-0.5,2.3-0.8l1,3.8c-1.1,0.5-2.3,0.9-3.5,1.2c-1.3,0.3-2.6,0.4-4.1,0.4c-2.4,0-4.2-0.7-5.2-2.2
		c-1-1.4-1.6-3.8-1.6-7v-20.5h-4.5L381.8,218.9L381.8,218.9z"/>
	<path fill="#878787" d="M424.2,249.9c-1.2,1-2.7,1.7-4.5,2.3c-1.8,0.5-3.7,0.8-5.7,0.8c-2.3,0-4.3-0.4-6-1.2
		c-1.7-0.8-3.1-2-4.2-3.5c-1.1-1.5-1.9-3.4-2.4-5.5c-0.5-2.1-0.8-4.5-0.8-7.2c0-5.7,1.1-10,3.4-13c2.3-3,5.5-4.5,9.7-4.5
		c1.4,0,2.7,0.2,4.1,0.5c1.3,0.3,2.5,0.9,3.6,1.9c1.1,0.9,1.9,2.2,2.6,3.9c0.7,1.7,1,3.9,1,6.6c0,0.8,0,1.6-0.1,2.4
		s-0.2,1.8-0.3,2.7h-18.6c0,1.9,0.2,3.6,0.5,5.2c0.3,1.6,0.9,2.9,1.6,4c0.7,1.1,1.7,1.9,2.8,2.5c1.1,0.6,2.6,0.9,4.3,0.9
		c1.3,0,2.6-0.2,3.9-0.7c1.3-0.4,2.3-1,3-1.6L424.2,249.9z M420.1,232.1c0.1-3.3-0.4-5.8-1.5-7.3c-1.1-1.6-2.7-2.3-4.6-2.3
		c-2.2,0-4,0.8-5.3,2.3c-1.3,1.6-2.1,4-2.3,7.3H420.1z M415,204.3h5.7v1.4l-6,8.5h-3.1L415,204.3z"/>
	<path fill="#878787" d="M429.4,218.9h3.7l1,3.5h0.2c0.7-1.3,1.6-2.3,2.7-3c1.1-0.7,2.4-1.1,4-1.1c1.1,0,2.4,0.2,3.8,0.6l-1,4.9
		c-1.3-0.4-2.4-0.6-3.4-0.6c-1.6,0-2.8,0.4-3.8,1.2c-1,0.8-1.6,1.9-1.9,3.3v24.5h-5.3L429.4,218.9L429.4,218.9z"/>
	<path fill="#878787" d="M446.1,208.8c0-1.1,0.3-1.9,1-2.6s1.5-1,2.6-1s2,0.3,2.7,1c0.7,0.6,1.1,1.5,1.1,2.6c0,1.1-0.4,1.9-1.1,2.5
		c-0.7,0.6-1.6,0.9-2.7,0.9s-1.9-0.3-2.6-0.9C446.4,210.6,446.1,209.8,446.1,208.8z M447.1,218.9h5.3v33.3h-5.3V218.9z"/>
	<path fill="#878787" d="M457.2,235.5c0-6,1.1-10.4,3.4-13.2c2.3-2.8,5.5-4.2,9.7-4.2c4.5,0,7.8,1.4,9.9,4.3
		c2.1,2.9,3.2,7.2,3.2,13.1c0,6-1.1,10.4-3.4,13.2c-2.3,2.8-5.5,4.2-9.7,4.2c-4.5,0-7.8-1.4-9.9-4.3
		C458.3,245.8,457.2,241.4,457.2,235.5z M462.7,235.5c0,2,0.1,3.7,0.4,5.3s0.7,3,1.3,4.1c0.6,1.2,1.4,2.1,2.4,2.7c1,0.6,2.1,1,3.5,1
		c2.5,0,4.4-1,5.7-3.1c1.3-2.1,1.9-5.4,1.9-10c0-1.9-0.1-3.7-0.4-5.3c-0.3-1.6-0.7-3-1.3-4.2c-0.6-1.2-1.4-2.1-2.4-2.7
		c-1-0.6-2.1-1-3.5-1c-2.5,0-4.4,1-5.7,3.1C463.4,227.7,462.7,231,462.7,235.5z"/>
	<path fill="#878787" d="M486.6,246.7c1,0.5,2.1,1,3.5,1.4c1.3,0.4,2.7,0.6,4.1,0.6c1.6,0,3-0.4,4.1-1.1s1.7-1.9,1.7-3.6
		c0-1.4-0.3-2.5-1-3.4c-0.7-0.9-1.5-1.7-2.6-2.4c-1-0.7-2.2-1.4-3.4-2c-1.2-0.6-2.4-1.3-3.4-2.2c-1-0.8-1.9-1.8-2.6-3
		c-0.7-1.1-1-2.6-1-4.4c0-2.8,0.8-5,2.5-6.4c1.7-1.4,4.1-2.2,7.1-2.2c2,0,3.7,0.2,5.2,0.5c1.5,0.3,2.7,0.8,3.8,1.4l-1.4,4
		c-0.9-0.4-2-0.8-3.2-1.1c-1.2-0.3-2.5-0.4-3.7-0.4c-1.8,0-3,0.3-3.8,1c-0.8,0.7-1.2,1.7-1.2,3.1c0,1.1,0.3,2.1,1,2.8
		c0.7,0.8,1.5,1.5,2.6,2.1c1,0.6,2.2,1.3,3.4,2c1.2,0.7,2.4,1.5,3.4,2.4c1,0.9,1.9,2,2.6,3.3c0.7,1.3,1,2.9,1,4.8
		c0,1.2-0.2,2.4-0.7,3.5c-0.4,1.1-1.1,2.1-2,2.9c-0.9,0.8-2,1.5-3.4,2c-1.3,0.5-2.9,0.7-4.7,0.7c-2.1,0-4-0.2-5.6-0.6
		c-1.6-0.4-2.9-0.9-4-1.5L486.6,246.7z"/>
	<path fill="#878787" d="M521.4,206.1c1.6-0.4,3.2-0.7,5-0.8c1.8-0.1,3.5-0.2,5.2-0.2c2,0,3.9,0.2,5.8,0.6c1.9,0.4,3.6,1.1,5.2,2.2
		c1.5,1.1,2.8,2.5,3.7,4.4s1.4,4.2,1.4,7.1c0,2.8-0.5,5.2-1.4,7.1c-0.9,2-2.1,3.5-3.6,4.8c-1.5,1.2-3.2,2.1-5.1,2.7
		c-1.9,0.6-3.9,0.8-6,0.8c-0.2,0-0.5,0-1,0c-0.4,0-0.9,0-1.4,0s-1-0.1-1.4-0.1c-0.5,0-0.8-0.1-1-0.1v17.7h-5.5L521.4,206.1
		L521.4,206.1z M531.9,209.7c-1,0-1.9,0-2.8,0.1c-0.9,0.1-1.6,0.2-2.2,0.3v19.8c0.2,0.1,0.5,0.1,0.9,0.2c0.4,0,0.8,0,1.3,0.1
		c0.4,0,0.9,0,1.3,0c0.4,0,0.7,0,0.9,0c1.4,0,2.7-0.2,4-0.5c1.3-0.3,2.4-0.9,3.4-1.7c1-0.8,1.8-1.9,2.4-3.3c0.6-1.4,0.9-3.2,0.9-5.3
		c0-1.9-0.3-3.4-0.8-4.7c-0.6-1.2-1.3-2.2-2.2-3c-0.9-0.8-2-1.3-3.2-1.6C534.4,209.8,533.2,209.7,531.9,209.7z"/>
	<path fill="#878787" d="M550.4,220.9c1.4-0.8,3.1-1.4,5.2-1.9c2-0.4,4.2-0.7,6.4-0.7c2,0,3.7,0.3,4.9,0.8c1.2,0.6,2.2,1.3,2.9,2.3
		c0.7,1,1.2,2,1.4,3.3c0.2,1.2,0.3,2.5,0.3,3.8c0,2.7-0.1,5.3-0.2,7.8c-0.1,2.5-0.2,4.9-0.2,7.2c0,1.7,0.1,3.2,0.2,4.7
		c0.1,1.4,0.4,2.8,0.7,4.1H568l-1.3-3.9h-0.3c-0.7,1.2-1.8,2.2-3.2,3c-1.4,0.8-3.3,1.3-5.7,1.3c-2.6,0-4.8-0.8-6.4-2.5
		c-1.7-1.7-2.5-4-2.5-6.9c0-1.9,0.3-3.5,1.1-4.8c0.7-1.3,1.7-2.3,3-3.1c1.3-0.8,2.8-1.4,4.6-1.7s3.7-0.5,5.9-0.5c0.5,0,1,0,1.5,0
		c0.5,0,1,0,1.5,0.1c0.1-1.4,0.2-2.6,0.2-3.7c0-2.5-0.4-4.3-1.2-5.3s-2.3-1.5-4.5-1.5c-1.4,0-2.8,0.2-4.4,0.6
		c-1.6,0.4-2.9,0.9-4,1.4L550.4,220.9z M552.3,208.7c1.3-1.5,2.5-2.5,3.5-3.1c1-0.6,2-0.8,2.8-0.8c0.7,0,1.3,0.1,1.9,0.4
		c0.6,0.3,1.2,0.5,1.7,0.8s1.1,0.6,1.6,0.8c0.5,0.3,1.1,0.4,1.6,0.4c0.4,0,0.9-0.1,1.4-0.3c0.5-0.2,1-0.5,1.5-1l1.7,2.5
		c-1.2,1.3-2.2,2.2-3.1,2.7c-0.9,0.5-1.7,0.7-2.5,0.7c-0.7,0-1.3-0.1-1.9-0.4c-0.6-0.2-1.2-0.5-1.7-0.8c-0.6-0.3-1.1-0.6-1.6-0.8
		c-0.5-0.2-1.1-0.4-1.7-0.4c-0.5,0-1.1,0.1-1.6,0.4c-0.5,0.2-1.1,0.7-1.8,1.3L552.3,208.7z M566.2,237c-0.5,0-1-0.1-1.4-0.1
		c-0.5,0-1,0-1.4,0c-1.2,0-2.3,0.1-3.4,0.3c-1.1,0.2-2.1,0.5-3,0.9c-0.9,0.4-1.6,1-2.1,1.8c-0.5,0.8-0.8,1.7-0.8,2.9
		c0,1.8,0.5,3.1,1.4,4.1c0.9,1,2.2,1.5,3.7,1.5c2,0,3.6-0.4,4.7-1.3c1.1-0.9,1.9-1.9,2.3-2.9L566.2,237L566.2,237z"/>
	<path fill="#878787" d="M575.2,235.5c0-6,1.1-10.4,3.4-13.2c2.3-2.8,5.5-4.2,9.7-4.2c4.5,0,7.8,1.4,9.9,4.3
		c2.1,2.9,3.2,7.2,3.2,13.1c0,6-1.1,10.4-3.4,13.2c-2.3,2.8-5.5,4.2-9.7,4.2c-4.5,0-7.8-1.4-9.9-4.3
		C576.3,245.8,575.2,241.4,575.2,235.5z M580.7,235.5c0,2,0.1,3.7,0.4,5.3s0.7,3,1.3,4.1c0.6,1.2,1.4,2.1,2.4,2.7c1,0.6,2.1,1,3.5,1
		c2.5,0,4.4-1,5.7-3.1c1.3-2.1,1.9-5.4,1.9-10c0-1.9-0.1-3.7-0.4-5.3c-0.3-1.6-0.7-3-1.3-4.2c-0.6-1.2-1.4-2.1-2.4-2.7
		c-1-0.6-2.1-1-3.5-1c-2.5,0-4.4,1-5.7,3.1C581.4,227.7,580.7,231,580.7,235.5z"/>
	<path fill="#878787" d="M617.9,205.6c0.8-0.1,1.6-0.2,2.6-0.3s1.9-0.1,2.9-0.1c1,0,1.9,0,2.9-0.1c1,0,1.8,0,2.7,0
		c3.6,0,6.6,0.6,9.1,1.7c2.5,1.1,4.5,2.7,6.1,4.8c1.6,2.1,2.7,4.5,3.4,7.4c0.7,2.9,1,6.1,1,9.6c0,3.2-0.3,6.3-1,9.2
		c-0.7,2.9-1.8,5.5-3.3,7.7c-1.6,2.2-3.6,4-6.2,5.3c-2.6,1.3-5.8,2-9.6,2c-0.6,0-1.4,0-2.4,0c-1,0-2-0.1-3-0.1c-1-0.1-2-0.1-2.9-0.2
		c-0.9,0-1.6-0.1-2.1-0.2L617.9,205.6L617.9,205.6z M629.2,209.7c-0.5,0-1,0-1.6,0c-0.6,0-1.1,0-1.6,0.1c-0.5,0-1,0.1-1.5,0.1
		c-0.5,0-0.8,0.1-1.1,0.1v37.9c0.2,0,0.5,0.1,1.1,0.1c0.5,0,1,0,1.6,0.1c0.6,0,1.1,0,1.6,0.1c0.5,0,0.9,0,1.1,0
		c2.7,0,4.9-0.5,6.7-1.6c1.8-1.1,3.2-2.5,4.3-4.3c1-1.8,1.8-3.9,2.2-6.3c0.4-2.4,0.7-4.9,0.7-7.5c0-2.4-0.2-4.7-0.6-6.9
		c-0.4-2.3-1.1-4.3-2.1-6c-1-1.8-2.4-3.2-4.1-4.3C634.2,210.2,632,209.7,629.2,209.7z"/>
	<path fill="#878787" d="M652.7,208.8c0-1.1,0.3-1.9,1-2.6s1.5-1,2.6-1s2,0.3,2.7,1c0.7,0.6,1.1,1.5,1.1,2.6c0,1.1-0.4,1.9-1.1,2.5
		c-0.7,0.6-1.6,0.9-2.7,0.9s-1.9-0.3-2.6-0.9C653,210.6,652.7,209.8,652.7,208.8z M653.6,218.9h5.3v33.3h-5.3V218.9z"/>
	<path fill="#878787" d="M665,220.9c1.4-0.8,3.1-1.4,5.2-1.9c2-0.4,4.2-0.7,6.4-0.7c2,0,3.7,0.3,4.9,0.8c1.2,0.6,2.2,1.3,2.9,2.3
		c0.7,1,1.2,2,1.4,3.3c0.2,1.2,0.3,2.5,0.3,3.8c0,2.7-0.1,5.3-0.2,7.8c-0.1,2.5-0.2,4.9-0.2,7.2c0,1.7,0.1,3.2,0.2,4.7
		c0.1,1.4,0.4,2.8,0.7,4.1h-4.1l-1.3-3.9H681c-0.7,1.2-1.8,2.2-3.2,3c-1.4,0.8-3.3,1.3-5.7,1.3c-2.6,0-4.8-0.8-6.4-2.5
		c-1.7-1.7-2.5-4-2.5-6.9c0-1.9,0.3-3.5,1.1-4.8c0.7-1.3,1.7-2.3,3-3.1c1.3-0.8,2.8-1.4,4.6-1.7s3.7-0.5,5.9-0.5c0.5,0,1,0,1.5,0
		c0.5,0,1,0,1.5,0.1c0.1-1.4,0.2-2.6,0.2-3.7c0-2.5-0.4-4.3-1.2-5.3s-2.3-1.5-4.5-1.5c-1.4,0-2.8,0.2-4.4,0.6
		c-1.6,0.4-2.9,0.9-4,1.4L665,220.9z M680.7,237c-0.5,0-1-0.1-1.4-0.1c-0.5,0-1,0-1.4,0c-1.2,0-2.3,0.1-3.4,0.3
		c-1.1,0.2-2.1,0.5-3,0.9c-0.9,0.4-1.6,1-2.1,1.8c-0.5,0.8-0.8,1.7-0.8,2.9c0,1.8,0.5,3.1,1.4,4.1c0.9,1,2.2,1.5,3.7,1.5
		c2,0,3.6-0.4,4.7-1.3c1.1-0.9,1.9-1.9,2.3-2.9L680.7,237L680.7,237z M675.3,204.3h5.7v1.4l-6,8.5h-3.1L675.3,204.3z"/>
	<path fill="#878787" d="M691.4,218.9h3.7l1,3.5h0.2c0.7-1.3,1.6-2.3,2.7-3c1.1-0.7,2.4-1.1,4-1.1c1.1,0,2.4,0.2,3.8,0.6l-1,4.9
		c-1.3-0.4-2.4-0.6-3.4-0.6c-1.6,0-2.8,0.4-3.8,1.2c-1,0.8-1.6,1.9-1.9,3.3v24.5h-5.3V218.9z"/>
	<path fill="#878787" d="M708.2,208.8c0-1.1,0.3-1.9,1-2.6s1.5-1,2.6-1s2,0.3,2.7,1c0.7,0.6,1.1,1.5,1.1,2.6c0,1.1-0.4,1.9-1.1,2.5
		c-0.7,0.6-1.6,0.9-2.7,0.9s-1.9-0.3-2.6-0.9C708.5,210.6,708.2,209.8,708.2,208.8z M709.1,218.9h5.3v33.3h-5.3V218.9z"/>
	<path fill="#878787" d="M719.3,235.5c0-6,1.1-10.4,3.4-13.2c2.3-2.8,5.5-4.2,9.7-4.2c4.5,0,7.8,1.4,9.9,4.3
		c2.1,2.9,3.2,7.2,3.2,13.1c0,6-1.1,10.4-3.4,13.2c-2.3,2.8-5.5,4.2-9.7,4.2c-4.5,0-7.8-1.4-9.9-4.3
		C720.4,245.8,719.3,241.4,719.3,235.5z M724.8,235.5c0,2,0.1,3.7,0.4,5.3s0.7,3,1.3,4.1c0.6,1.2,1.4,2.1,2.4,2.7c1,0.6,2.1,1,3.5,1
		c2.5,0,4.4-1,5.7-3.1c1.3-2.1,1.9-5.4,1.9-10c0-1.9-0.1-3.7-0.4-5.3c-0.3-1.6-0.7-3-1.3-4.2c-0.6-1.2-1.4-2.1-2.4-2.7
		c-1-0.6-2.1-1-3.5-1c-2.5,0-4.4,1-5.7,3.1C725.4,227.7,724.8,231,724.8,235.5z"/>
</g>
</svg>
